/* XPM */
static char * diff_xpm[] = {
"16 16 42 1",
" 	c None",
".	c #FFFFFF",
"+	c #857B48",
"@	c #332F1C",
"#	c #665E38",
"$	c #CCCCCB",
"%	c #625200",
"&	c #676038",
"*	c #D6C675",
"=	c #7A755E",
"-	c #E0DABB",
";	c #95852C",
">	c #5B5222",
",	c #998D53",
"'	c #999999",
")	c #FFF0A4",
"!	c #E4D16F",
"~	c #493E00",
"{	c #716E62",
"]	c #EAE1B2",
"^	c #FFEC8B",
"/	c #FAE785",
"(	c #AF9E42",
"_	c #463E11",
":	c #ADA163",
"<	c #85837C",
"[	c #FFF2B0",
"}	c #D4C15E",
"|	c #493F0B",
"1	c #A99C59",
"2	c #333333",
"3	c #FFF7D0",
"4	c #AF9C37",
"5	c #191500",
"6	c #AEABA0",
"7	c #DFCC69",
"8	c #635611",
"9	c #FFFBE8",
"0	c #94811B",
"a	c #34301C",
"b	c #4E4100",
"c	c #A39759",
"................",
"................",
".......++.......",
".......@@.......",
"......#$%&......",
".....*=-;>*.....",
".....,')!~,.....",
"....*{]^/(_*....",
"....:<[^^}|1....",
"....23^^^^45....",
"...+6)^^^^78+...",
"...@9^^^^^^0a...",
"..#b%%%%%%%%b#..",
"..c##########c..",
"................",
"................"};
