/* XPM */
static char * 0_xpm[] = {
"16 16 43 1",
" 	c None",
".	c #FFFFFF",
"+	c #000000",
"@	c #857B48",
"#	c #332F1C",
"$	c #665E38",
"%	c #CCCCCB",
"&	c #625200",
"*	c #676038",
"=	c #D6C675",
"-	c #7A755E",
";	c #E0DABB",
">	c #95852C",
",	c #5B5222",
"'	c #998D53",
")	c #999999",
"!	c #FFF0A4",
"~	c #E4D16F",
"{	c #493E00",
"]	c #716E62",
"^	c #EAE1B2",
"/	c #FFEC8B",
"(	c #FAE785",
"_	c #AF9E42",
":	c #463E11",
"<	c #ADA163",
"[	c #85837C",
"}	c #FFF2B0",
"|	c #D4C15E",
"1	c #493F0B",
"2	c #A99C59",
"3	c #333333",
"4	c #FFF7D0",
"5	c #AF9C37",
"6	c #191500",
"7	c #AEABA0",
"8	c #DFCC69",
"9	c #635611",
"0	c #FFFBE8",
"a	c #94811B",
"b	c #34301C",
"c	c #4E4100",
"d	c #A39759",
"............+++.",
"............+.+.",
".......@@...+.+.",
".......##...+++.",
"......$%&*......",
".....=-;>,=.....",
".....')!~{'.....",
"....=]^/(_:=....",
"....<[}//|12....",
"....34////56....",
"...@7!////89@...",
"...#0//////ab...",
"..$c&&&&&&&&c$..",
"..d$$$$$$$$$$d..",
"................",
"................"};
