/* XPM */
static char *dir[] = {
/* columns rows colors chars-per-pixel */
"20 17 5 1",
"  c #6F6F6F",
". c #FFEC8B",
"X c gray100",
"o c gray100",
"O c None",
/* pixels */
"OO         OOOOOOOOO",
"O ......... OOOOOOOO",
" ...........        ",
"            XXXXXXX ",
" X................. ",
" X................. ",
" X................. ",
" X................. ",
" X................. ",
" X................. ",
" X................. ",
" X................. ",
" X................. ",
" X................. ",
" X................. ",
" X................. ",
"                    "
};
