/* XPM */
static char * vtree_xpm[] = {
"16 16 33 1",
" 	c None",
".	c #FFFFFF",
"+	c #A1A1A1",
"@	c #999999",
"#	c #252525",
"$	c #371B08",
"%	c #160B03",
"&	c #979695",
"*	c #B0AFAF",
"=	c #4C4C4C",
"-	c #636363",
";	c #888787",
">	c #696968",
",	c #B6B6B6",
"'	c #183C53",
")	c #3993CA",
"!	c #282828",
"~	c #888888",
"{	c #1B1B1B",
"]	c #454545",
"^	c #660000",
"/	c #280000",
"(	c #C0C0C0",
"_	c #848281",
":	c #353534",
"<	c #2D1606",
"[	c #6F360F",
"}	c #797978",
"|	c #747371",
"1	c #797877",
"2	c #696867",
"3	c #1D4966",
"4	c #0C1D29",
"...+@@@.........",
"...#$$%&........",
"...#$$%@*===-...",
"...@;>&,&'))!...",
"...+~>@,+#{#]...",
"...!^^/&((_*....",
"...#^^/@+=:]-...",
"...+~>@,@<[[!...",
"...+~>&,+#{{]...",
"...#$$%}&&|*....",
"...#$$%1&&&.....",
"...+~>@.........",
"...+~2@.........",
"...#334&........",
"...#334@........",
"...+@@@........."};
