/* XPM */
static char *a[] = {
/* columns rows colors chars-per-pixel */
"16 16 70 1",
"  c #9E9E0B0B0E0E",
". c #A3A319191C1C",
"X c #A6A61F1F2222",
"o c #AAAA2A2A2D2D",
"O c #ACAC35353838",
"+ c #B0B03B3B3D3D",
"@ c #BFBF5E5E6060",
"# c #B1B174747575",
"$ c #C2C266666868",
"% c #C4C46C6C6D6D",
"& c #969682825555",
"* c #979786867777",
"= c #A5A58F8F5555",
"- c #A6A691914343",
"; c #A9A995955A5A",
": c #BABAA9A95E5E",
"> c #B1B1A4A47C7C",
", c #CBCBBDBD7F7F",
"< c #DCDCCBCB7F7F",
"1 c #929286868585",
"2 c #909088889898",
"3 c #91918D8DB7B7",
"4 c #99999494AEAE",
"5 c #AAAA9F9F9494",
"6 c #B7B796969797",
"7 c #B2B2B5B5B4B4",
"8 c #B6B6B9B9B8B8",
"9 c gray74",
"0 c #8F8F8D8DC7C7",
"q c #9B9B9E9ECDCD",
"w c #9B9B9D9DD2D2",
"e c #A4A4A1A1C7C7",
"r c #AAAAA9A9D3D3",
"t c #BFBFBDBDD3D3",
"y c #BBBBBEBED8D8",
"u c #BFBFC1C1C1C1",
"i c #D6D699999A9A",
"p c #C1C1B2B29494",
"a c #C4C4B8B89E9E",
"s c #DCDCA6A6A7A7",
"d c #E0E0B1B1B2B2",
"f c #E2E2B7B7B8B8",
"g c #D8D8CBCB8B8B",
"h c #D6D6CACA9D9D",
"j c #CFCFC3C3B3B3",
"k c #D9D9D1D1BBBB",
"l c #E9E9DCDC9191",
"z c #C3C3C3C3C3C3",
"x c #C6C6C8C8C7C7",
"c c #C7C7CACACACA",
"v c #CFCFD3D3D3D3",
"b c LightGray",
"n c #DBDBDCDCDDDD",
"m c #DDDDE2E2E4E4",
"M c #E9E9C9C9CACA",
"N c #E3E3DCDCC2C2",
"B c #E2E2DCDCD4D4",
"V c #E2E2DDDDDCDC",
"C c #ECECE5E5C8C8",
"Z c #E7E7E1E1DBDB",
"A c #E2E2E5E5E4E4",
"S c #E7E7EBEBE9E9",
"D c #EAEAEBEBEAEA",
"F c #E9E9ECECF9F9",
"G c #F2F2ECECECEC",
"H c #FCFCFAFAEFEF",
"J c #F5F5F5F5F6F6",
"K c #F6F6FBFBF9F9",
"L c #F9F9F4F4F3F3",
"P c #FEFEFEFEFEFE",
/* pixels */
"PPPPPJJGDnbxucJP",
"Dcu97778zcvnmmyP",
"9xZADKKKPPPPPKqP",
"9DPPPPPPPPPPPKqP",
"9SPPPM%PPPPPPKqP",
"9DPG$ sPPPPPPKqP",
"9Si. XLPPPPPPKqP",
"6O   o%%%%%dPKqP",
"#.   .+++++iPKqP",
"9V%  oPPPPPPPKqP",
"9DPM+ fPPPPPPKqP",
"9DPPPi@PPPPPPKqP",
"9DPPPPLPPPPPPPqP",
"9VVKBnLjFN9FptwP",
"n>*r=35&0;14-2eP",
"Pk:ah,kghN<CNlHP"
};
