/* XPM */
static char *conflict[] = {
/* columns rows colors chars-per-pixel */
"20 20 9 1",
"  c black",
". c gray",
"X c #FFEC8B",
"o c #48B8FF",
"O c gray100",
"+ c gray100",
"@ c gray100",
"# c gray100",
"$ c None",
/* pixels */
"$$$$$$$$$$$$$$$$$$$$",
"$$  $$$$$  $$$$$  $$",
"$$ . $$$$  $$$$ . $$",
"$$$ . $$ XX $$ . $$$",
"$$$$ . $ XX $ . $$$$",
"$$$$$ . XXXX . $$$$$",
"$$$$$$ . XX . $$$$$$",
"$$$$$$  .  .  $$$$$$",
"$$$$$$ X .  X $$$$$$",
"$$$$$ XX  . XX $$$$$",
"$  $$ X .  . X $$  $",
"$ $  X . XX . X  $ $",
"$$$   . XXXX .   $$$",
"$$$  o XXXXXX o  $$$",
"$$$ o          o $$$",
"$$ o $  $$$$  $ o $$",
"$ o $$$$ $$ $$$$ o $",
"$  $$$$  $$  $$$$  $",
"$$$$$$$$$$$$$$$$$$$$",
"$$$$$$$$$$$$$$$$$$$$"
};
