/* XPM */
static char *shell[] = {
/* columns rows colors chars-per-pixel */
"16 16 17 1",
"  c black",
". c #383020",
"X c #000078",
"o c #786448",
"O c #787060",
"+ c gray47",
"@ c #787C78",
"# c navy",
"$ c #788078",
"% c #B89870",
"& c #808080",
"* c gray72",
"= c #B8BCB8",
"- c #F8CC98",
"; c #C0C0C0",
": c #F8F8F8",
"> c #F8FCF8",
/* pixels */
">>>>>>>>>>>>>>>>",
"&+&+&+&+&+&+&+&+",
"$;*;*;*;*;*;*;+ ",
"&*#X#X#X#X#X#X& ",
"+;##X###: : : & ",
"&*&+++@&+@&+++& ",
"$;:>@O-%.-%@=:+ ",
"&*:O-o--o-%%%:& ",
"+;:O-%%-o-o-%:& ",
"&*:>O-o-o%%%&:& ",
"$;:>>Oo%o.%&>:+ ",
"&*:>>@%---.:::& ",
"+;:>>&@@@@@:::& ",
"&+&+&+&+&+&+&+& ",
"                ",
"::::::::::::::::"
};
